{"title":"Maze Runner The Scorch Trials 2015 720p HDRip KORSUB XviD MP3","uid":12674359,"size":3951341897,"categoryP":"video","categoryS":"hd___movies","magnet":"?xt=urn:btih:76fbf37cb0d06f929bf0cc26e489cb6fe680d6b3&amp;dn=Maze+Runner+The+Scorch+Trials+2015+720p+HDRip+KORSUB+XviD+MP3&amp;tr=udp%3A%2F%2Ftracker.leechers-paradise.org%3A6969&amp;tr=udp%3A%2F%2Fzer0day.ch%3A1337&amp;tr=udp%3A%2F%2Fopen.demonii.com%3A1337&amp;tr=udp%3A%2F%2Ftracker.coppersurfer.tk%3A6969&amp;tr=udp%3A%2F%2Fexodus.desync.com%3A6969","seeders":1,"leechers":18,"uploader":"TheRival","files":4,"time":1446491783,"description":"Screens: \nhttp://extraimago.com/image/JBY \nhttp://extraimago.com/image/JBp \nhttp://extraimago.com/image/JBr \nhttp://extraimago.com/image/JBG \nhttp://extraimago.com/image/JBP \nhttp://extraimago.com/image/JBX\r\n\r\nVideo\r\nID                                       : 0\r\nFormat                                   : MPEG-4 Visual\r\nFormat profile                           :   \r\nFormat settings, BVOP                    : No\r\nFormat settings, QPel                    : No\r\nFormat settings, GMC                     : No warppoints\r\nFormat settings, Matrix                  : Default (H.263)\r\nCodec ID                                 : XVID\r\nCodec ID/Hint                            : XviD\r\nDuration                                 : 2h 11mn\r\nBit rate                                 : 3 799 Kbps\r\nWidth                                    : 1 280 pixels\r\nHeight                                   : 720 pixels\r\nDisplay aspect ratio                     : 16:9\r\nFrame rate                               : 29.970 fps\r\nColor space                              : YUV\r\nChroma subsampling                       : 4:2:0\r\nBit depth                                : 8 bits\r\nScan type                                : Progressive\r\nCompression mode                         : Lossy\r\nBits/(Pixel*Frame)                       : 0.138\r\nStream size                              : 3.49 GiB (95%)\r\nWriting library                          : Lavc56.58.100\r\n\r\nAudio\r\nID                                       : 1\r\nFormat                                   : MPEG Audio\r\nFormat version                           : Version 1\r\nFormat profile                           : Layer 3\r\nMode                                     : Joint stereo\r\nCodec ID                                 : 55\r\nCodec ID/Hint                            : MP3\r\nDuration                                 : 2h 11mn\r\nBit rate mode                            : Constant\r\nBit rate                                 : 192 Kbps\r\nChannel(s)                               : 2 channels\r\nSampling rate                            : 48.0 KHz\r\nCompression mode                         : Lossy\r\nStream size                              : 181 MiB (5%)\r\nAlignment                                : Aligned on interleaves\r\nInterleave, duration                     : 24 ms (0.72 video frame)\r\nInterleave, preload duration             : 504 ms","torrent":{"xt":"urn:btih:76fbf37cb0d06f929bf0cc26e489cb6fe680d6b3","amp;dn":"Maze+Runner+The+Scorch+Trials+2015+720p+HDRip+KORSUB+XviD+MP3","amp;tr":["udp%3A%2F%2Ftracker.leechers-paradise.org%3A6969","udp%3A%2F%2Fzer0day.ch%3A1337","udp%3A%2F%2Fopen.demonii.com%3A1337","udp%3A%2F%2Ftracker.coppersurfer.tk%3A6969","udp%3A%2F%2Fexodus.desync.com%3A6969"],"infoHash":"76fbf37cb0d06f929bf0cc26e489cb6fe680d6b3","infoHashBuffer":{"type":"Buffer","data":[118,251,243,124,176,208,111,146,155,240,204,38,228,137,203,111,230,128,214,179]},"announce":[],"urlList":[]}}